<?xml version="1.0" encoding="UTF-8"?>
<!DOCTYPE svg PUBLIC "-//W3C//DTD SVG 1.1//EN" "http://www.w3.org/Graphics/SVG/1.1/DTD/svg11.dtd">
<!-- Creator: CorelDRAW -->
<svg xmlns="http://www.w3.org/2000/svg" xml:space="preserve" width="2.00694in" height="2.00694in" version="1.1" style="shape-rendering:geometricPrecision; text-rendering:geometricPrecision; image-rendering:optimizeQuality; fill-rule:evenodd; clip-rule:evenodd"
viewBox="0 0 243.15 243.15"
 xmlns:xlink="http://www.w3.org/1999/xlink"
 xmlns:xodm="http://www.corel.com/coreldraw/odm/2003">
 <defs>
  <style type="text/css">
   <![CDATA[
    .str0 {stroke:#373435;stroke-width:0.84;stroke-miterlimit:2.61313}
    .fil0 {fill:#373435}
    .fil1 {fill:#FEFEFE;fill-rule:nonzero}
   ]]>
  </style>
 </defs>
 <g id="Layer_x0020_1">
  <metadata id="CorelCorpID_0Corel-Layer"/>
  <g id="_1607283757056">
   <rect class="fil0 str0" x="0.41" y="0.41" width="242.31" height="242.31"/>
   <g>
    <g>
     <path class="fil1" d="M37.39 111.25l0.14 0 -1.33 4.21 -35.78 0 0 -0.25 28.18 -44.33 -4.32 0c-9.76,0 -17.2,0.94 -22.32,2.83l-0.14 0 0.84 -3.96 34.59 0 0 0.25 -28.25 44.33 5.51 0c9.76,0 17.39,-1.03 22.88,-3.08zm37.11 0l0.14 0 -1.33 4.21 -30.06 0 0 -45.71 29.22 0 0.84 3.96 -0.14 0c-6.18,-1.88 -12.51,-2.83 -18.97,-2.83l-3.84 0 0 20.22 3.21 0c7.49,0 12.37,-0.42 14.65,-1.26l0.14 0 0 3.89 -0.14 0c-2.46,-1 -7.35,-1.51 -14.65,-1.51l-3.21 0 0 22.1 4.05 0c7.11,0 13.81,-1.03 20.09,-3.08zm29.92 -22.85l-4.25 6.72 0 20.34 -7.11 0 0 -19.59 -16.6 -26.12 8.16 0 14.93 23.86 3.63 -5.78c4.65,-7.28 7.6,-13.31 8.86,-18.08l4.39 0c-4.28,6.4 -8.28,12.62 -12,18.65zm41.64 27.06l-6.7 -15.01 -19.81 0c-2.56,6.19 -3.93,11.2 -4.12,15.01l-4.81 0c2.46,-4.56 5.49,-10.84 9.07,-18.84l0.56 -1.19 12.14 -26.68 0.28 0 21.13 46.71 -7.74 0zm-26.02 -16.14l18.83 0 -9.42 -20.97 -7.88 17.52 -1.53 3.45z"/>
     <path class="fil1" d="M33.82 128.71l0.82 4.46 -0.13 0c-4.81,-2.22 -8.92,-3.33 -12.31,-3.33l-1.44 0 0 44.58 -6.4 0 0 -44.58 -1.51 0c-3.39,0 -7.49,1.11 -12.31,3.33l-0.13 0 0.88 -4.46 32.52 0zm26.49 45.71l-6.03 -15.01 -17.83 0c-2.3,6.2 -3.54,11.2 -3.7,15.01l-4.33 0c2.22,-4.56 4.94,-10.84 8.16,-18.84l0.5 -1.19 10.92 -26.68 0.25 0 19.02 46.71 -6.97 0zm-23.42 -16.14l16.95 0 -8.48 -20.97 -7.09 17.52 -1.38 3.45zm81.43 16.14l-6.4 0 -3.89 -41.75 -15.38 38.86 -0.25 0 -17.01 -37.29 -1.76 20.15c-0.42,4.23 -0.63,8.27 -0.63,12.12 0,2.93 0.13,5.57 0.38,7.91l-3.77 0c1.05,-4.65 1.97,-11.34 2.76,-20.09l2.01 -22.48 -1.38 -2.95 0 -0.19 6.91 0 15.13 33.59 13.25 -33.59 5.78 0 4.27 45.71zm35.35 -4.21l0.13 0 -1.19 4.21 -27.06 0 0 -45.71 26.31 0 0.75 3.96 -0.13 0c-5.57,-1.88 -11.26,-2.83 -17.08,-2.83l-3.45 0 0 20.22 2.89 0c6.74,0 11.13,-0.42 13.18,-1.26l0.13 0 0 3.89 -0.13 0c-2.22,-1 -6.61,-1.51 -13.18,-1.51l-2.89 0 0 22.1 3.64 0c6.4,0 12.43,-1.03 18.08,-3.08z"/>
    </g>
    <path class="fil1" d="M207.56 121.44l35.16 35.08 0 17.89 -0.94 0 -46.46 -46.49c-1.26,-1.13 -2.41,-1.9 -3.45,-2.32 -1.05,-0.42 -2.62,-0.63 -4.71,-0.63l-10.52 0 0 46.35 -16.01 0 0 -102.57 28.1 0c30.87,0 46.3,8.64 46.3,25.92 0,12.12 -9.16,21.04 -27.47,26.77zm11.3 -25.78c0,-7.8 -2.64,-13.85 -7.93,-18.17 -5.28,-4.32 -12.9,-6.48 -22.84,-6.48l-11.46 0 0 50.86c3.24,0.56 8.06,0.85 14.44,0.85 8.16,0 14.83,-2.61 20.01,-7.82 5.18,-5.21 7.77,-11.62 7.77,-19.23z"/>
   </g>
  </g>
 </g>
</svg>
